<svg viewBox="0 0 299 292" fill="none">
<g clip-path="url(#clip0)">
<path d="M316.954 -2.56808C316.96 -2.62374 316.966 -2.67941 316.972 -2.73571C317.44 -7.26739 311.98 -9.88256 308.771 -6.66066L299.197 2.95187C298.285 3.86759 297.089 4.32608 295.893 4.32608C294.734 4.32608 293.575 3.89637 292.674 3.03569C290.765 1.21176 290.866 -1.95259 292.73 -3.82406L308.297 -19.4538C311.009 -22.1772 309.196 -26.924 305.361 -26.9928C305.332 -26.9935 305.303 -26.9941 305.273 -26.9941C282.73 -27.2449 261.038 -18.3642 245.096 -2.35854L179.455 63.5494C177.96 65.0505 176.428 66.5061 174.862 67.9159C169.817 72.4564 162.896 65.0474 167.687 60.2374L182.045 45.8211C183.854 44.0047 184.037 41.0211 182.283 39.1509C180.468 37.2162 177.435 37.1818 175.575 39.0477L120.469 94.3773C119.72 95.1297 118.762 95.6427 117.718 95.8272C117.663 95.8372 117.608 95.8466 117.552 95.8566C112.528 96.7373 109.338 90.6394 112.944 87.0184L136.064 63.8046C137.873 61.9882 138.057 59.0046 136.303 57.1343C134.488 55.1997 131.454 55.1653 129.595 57.0311L99.3858 87.363C93.2105 93.5635 85.3862 97.8613 76.8415 99.6764C31.8984 109.226 -1.63959 150.314 0.0622634 198.306C1.84119 248.48 41.8578 289.309 91.7946 291.872C136.855 294.185 176.066 265.014 189.063 224.231C191.315 217.166 195.107 210.694 200.33 205.449L226.777 178.895C228.586 177.079 228.77 174.095 227.016 172.225C225.201 170.291 222.167 170.256 220.308 172.122L205.839 186.649C201.411 191.096 193.852 187.592 194.366 181.325C194.372 181.252 194.378 181.18 194.384 181.108C194.518 179.522 195.21 178.038 196.331 176.912L287.366 85.5078C289.176 83.6914 289.359 80.7078 287.605 78.8376C285.79 76.903 282.757 76.8686 280.897 78.7344L217.039 142.85C212.703 147.204 205.747 141.844 208.782 136.493C213.859 127.54 220.144 119.228 227.527 111.815L293.169 45.9068C294.397 44.6727 295.584 43.4042 296.728 42.1038C299.617 38.8181 294.913 34.3584 291.826 37.4577C290.913 38.3734 289.718 38.8319 288.522 38.8319C287.362 38.8319 286.204 38.4022 285.303 37.5415C283.394 35.7176 283.495 32.5532 285.359 30.6817L315.569 0.349834C316.351 -0.435156 316.837 -1.46408 316.954 -2.56808Z" fill="url(#paint0_linear)"/>
<path d="M316.996 150.93C316.949 146.646 313.509 143.185 309.252 143.137C295.207 142.98 281.692 148.526 271.761 158.52C262.876 167.461 250.348 171.504 237.887 169.881C234.676 169.463 231.388 169.296 228.04 169.402C195.166 170.44 168.867 197.973 169.069 231.071C169.274 264.628 196.267 291.791 229.612 291.999C262.503 292.203 289.864 265.739 290.897 232.657C291.002 229.287 290.836 225.977 290.42 222.746C288.808 210.206 292.825 197.599 301.711 188.658C311.641 178.664 317.152 165.064 316.996 150.93Z" fill="url(#paint1_linear)"/>
<path d="M234.218 169.528C232.184 169.388 230.125 169.336 228.04 169.402C225.923 169.469 223.834 169.647 221.778 169.928C225.97 170.427 230.162 170.281 234.218 169.528Z" fill="url(#paint2_linear)"/>
<path d="M309.252 143.137C305.084 143.091 300.965 143.558 296.971 144.483C299.031 145.884 300.394 148.245 300.424 150.93C300.58 165.064 295.069 178.664 285.138 188.658C276.252 197.599 272.235 210.205 273.848 222.745C274.263 225.976 274.429 229.287 274.324 232.656C273.383 262.794 250.591 287.436 221.674 291.43C224.272 291.787 226.921 291.982 229.612 291.998C262.503 292.203 289.864 265.738 290.897 232.656C291.002 229.287 290.836 225.976 290.42 222.745C288.808 210.205 292.825 197.599 301.711 188.658C311.642 178.664 317.153 165.063 316.997 150.93C316.949 146.646 313.509 143.185 309.252 143.137Z" fill="url(#paint3_linear)"/>
<path d="M229.997 277.177C255.512 277.177 276.196 256.362 276.196 230.686C276.196 205.01 255.512 184.195 229.997 184.195C204.481 184.195 183.797 205.01 183.797 230.686C183.797 256.362 204.481 277.177 229.997 277.177Z" fill="url(#paint4_linear)"/>
<path d="M229.997 184.194C227.166 184.194 224.4 184.464 221.71 184.955C243.269 188.886 259.624 207.857 259.624 230.686C259.624 238.12 257.88 245.14 254.796 251.371C253.233 244.289 246.755 239.069 239.147 239.532C231.754 239.982 225.67 245.958 225.062 253.386C224.742 257.288 225.892 260.913 228.014 263.762C231.383 268.285 229.019 274.813 223.537 276.045C222.932 276.181 222.323 276.305 221.71 276.417C224.399 276.907 227.166 277.177 229.996 277.177C255.511 277.177 276.195 256.363 276.195 230.686C276.195 205.01 255.512 184.194 229.997 184.194Z" fill="url(#paint5_linear)"/>
<path d="M206.636 239.503C212.034 239.503 216.41 235.099 216.41 229.667C216.41 224.236 212.034 219.832 206.636 219.832C201.238 219.832 196.863 224.236 196.863 229.667C196.863 235.099 201.238 239.503 206.636 239.503Z" fill="url(#paint6_linear)"/>
<path d="M236.403 219.832C241.801 219.832 246.177 215.429 246.177 209.997C246.177 204.565 241.801 200.162 236.403 200.162C231.005 200.162 226.63 204.565 226.63 209.997C226.63 215.429 231.005 219.832 236.403 219.832Z" fill="url(#paint7_linear)"/>
<path d="M81.0532 285.464C122.23 285.464 155.611 251.872 155.611 210.435C155.611 168.999 122.23 135.407 81.0532 135.407C39.876 135.407 6.49538 168.999 6.49538 210.435C6.49538 251.872 39.876 285.464 81.0532 285.464Z" fill="url(#paint8_linear)"/>
<path d="M308.771 -6.66094L299.198 2.95159C298.285 3.86731 297.089 4.3258 295.893 4.3258C294.734 4.3258 293.576 3.89546 292.675 3.03541C290.765 1.21211 290.867 -1.95287 292.731 -3.82372L308.297 -19.4535C311.01 -22.1769 309.197 -26.9237 305.362 -26.9925C305.333 -26.9931 305.304 -26.9931 305.274 -26.9938C296.016 -27.097 286.902 -25.6565 278.269 -22.818C278.335 -21.6408 277.952 -20.4198 276.989 -19.4528L261.422 -3.82309C259.559 -1.95225 259.458 1.21273 261.367 3.03604C262.267 3.89671 263.426 4.32642 264.585 4.32642C265.78 4.32642 266.977 3.86856 267.889 2.95222L277.463 -6.66031C280.673 -9.88409 286.135 -7.26579 285.662 -2.72598C285.657 -2.66969 285.651 -2.61339 285.645 -2.55835C285.529 -1.45749 285.039 -0.431681 284.26 0.350182L254.051 30.6821C252.187 32.5535 252.085 35.7185 253.995 37.5425C254.896 38.4025 256.055 38.8322 257.213 38.8322C258.408 38.8322 259.604 38.3744 260.517 37.458H261.902C266.108 37.458 267.288 40.0694 264.446 43.1906C263.606 44.1132 262.744 45.0189 261.859 45.9065L180.94 127.198C178.148 130.002 178.062 134.527 180.743 137.437C182.503 139.347 183.048 141.87 180.728 145.944C177.278 152.004 178.179 159.631 182.74 164.895L183.092 165.302C185.689 168.299 189.296 170.09 193.179 170.829C194.112 171.006 195.002 171.471 195.708 172.224C196.792 173.38 197.134 174.961 196.811 176.429L287.366 85.5063C289.175 83.6899 289.359 80.7063 287.605 78.8361C285.79 76.9014 282.757 76.867 280.897 78.7329L217.039 142.85C212.701 147.206 205.754 141.83 208.793 136.474C213.869 127.527 220.149 119.222 227.527 111.814L293.168 45.9065C294.053 45.0189 294.915 44.1132 295.755 43.1906C298.598 40.0694 297.417 37.458 293.211 37.458H291.826C290.913 38.3737 289.717 38.8322 288.522 38.8322C287.364 38.8322 286.205 38.4025 285.304 37.5425C283.394 35.7192 283.496 32.5535 285.36 30.6821L315.569 0.350182C316.348 -0.431681 316.838 -1.45749 316.954 -2.55835C316.96 -2.61402 316.966 -2.66969 316.971 -2.72598C317.443 -7.26579 311.982 -9.88472 308.771 -6.66094Z" fill="url(#paint9_linear)"/>
<path d="M220.308 172.12L205.84 186.647C201.411 191.094 193.852 187.591 194.366 181.323C194.373 181.251 194.378 181.178 194.384 181.106C194.425 180.627 194.522 180.159 194.661 179.706L168.839 203.913C163.616 209.158 160.007 217.165 157.755 224.23C146.792 258.631 117.177 284.77 81.1321 290.72C84.6278 291.294 88.1844 291.686 91.7951 291.872C136.855 294.185 176.066 265.013 189.064 224.231C191.315 217.166 195.107 210.694 200.331 205.449L226.777 178.895C228.587 177.079 228.77 174.095 227.016 172.225C225.201 170.289 222.167 170.255 220.308 172.12Z" fill="url(#paint10_linear)"/>
<path d="M96.5992 269.82C137.776 269.82 171.157 236.228 171.157 194.791C171.157 153.354 137.776 119.763 96.5992 119.763C55.4221 119.763 22.0414 153.354 22.0414 194.791C22.0414 236.228 55.4221 269.82 96.5992 269.82Z" fill="url(#paint11_linear)"/>
<path d="M96.5992 119.763C92.0313 119.763 87.5672 120.198 83.2262 120.99C118.018 127.335 144.412 157.951 144.412 194.792C144.412 206.79 141.598 218.119 136.62 228.174C134.098 216.745 123.644 208.321 111.366 209.068C99.4354 209.793 89.6171 219.438 88.6351 231.426C88.1192 237.723 89.9739 243.573 93.3988 248.17C98.8362 255.469 95.0204 266.005 86.1736 267.994C85.1978 268.213 84.2151 268.413 83.2255 268.594C87.5666 269.385 92.0307 269.821 96.5986 269.821C137.776 269.821 171.156 236.229 171.156 194.793C171.156 153.356 137.776 119.763 96.5992 119.763Z" fill="url(#paint12_linear)"/>
<path d="M58.8992 209.021C67.6104 209.021 74.6721 201.914 74.6721 193.148C74.6721 184.382 67.6104 177.276 58.8992 177.276C50.1881 177.276 43.1263 184.382 43.1263 193.148C43.1263 201.914 50.1881 209.021 58.8992 209.021Z" fill="url(#paint13_linear)"/>
<path d="M106.938 177.276C115.649 177.276 122.711 170.17 122.711 161.404C122.711 152.638 115.649 145.531 106.938 145.531C98.2266 145.531 91.1648 152.638 91.1648 161.404C91.1648 170.17 98.2266 177.276 106.938 177.276Z" fill="url(#paint14_linear)"/>
<path d="M138.767 -19.6867C138.722 -23.7055 135.496 -26.9524 131.502 -26.9968C118.327 -27.1438 105.65 -21.9422 96.3333 -12.5668C87.9987 -4.17955 76.2467 -0.386581 64.5568 -1.90903C61.5453 -2.30121 58.4605 -2.45758 55.3203 -2.35813C24.4818 -1.38486 -0.188863 24.4423 0.00133654 55.4903C0.194023 86.9681 25.5142 112.449 56.7947 112.644C87.6481 112.836 113.315 88.0108 114.283 56.9771C114.382 53.8165 114.226 50.7116 113.836 47.6798C112.323 35.9169 116.092 24.0914 124.427 15.7042C133.744 6.32931 138.913 -6.42882 138.767 -19.6867Z" fill="url(#paint15_linear)"/>
<path d="M131.502 -26.9969C127.592 -27.0407 123.729 -26.6022 119.981 -25.734C121.914 -24.4199 123.193 -22.205 123.22 -19.6868C123.366 -6.4289 118.197 6.3286 108.881 15.7041C100.546 24.0913 96.777 35.9168 98.2899 47.6798C98.6796 50.7109 98.835 53.8164 98.7368 56.977C97.8548 85.2486 76.4741 108.364 49.3482 112.11C51.7847 112.445 54.2698 112.628 56.7946 112.643C87.648 112.835 113.314 88.0101 114.283 56.9764C114.382 53.8158 114.226 50.7103 113.836 47.6791C112.322 35.9162 116.092 24.0906 124.427 15.7034C133.744 6.32798 138.913 -6.42952 138.766 -19.6874C138.722 -23.7056 135.496 -26.9525 131.502 -26.9969Z" fill="url(#paint16_linear)"/>
<path d="M57.1557 98.7402C81.0904 98.7402 100.493 79.2148 100.493 55.1291C100.493 31.0434 81.0904 11.5181 57.1557 11.5181C33.221 11.5181 13.8181 31.0434 13.8181 55.1291C13.8181 79.2148 33.221 98.7402 57.1557 98.7402Z" fill="url(#paint17_linear)"/>
<path d="M57.1557 11.5171C54.501 11.5171 51.9059 11.7704 49.3824 12.2301C69.6057 15.918 84.9473 33.7138 84.9473 55.1281C84.9473 62.1023 83.3113 68.6875 80.4185 74.5314C78.9523 67.8887 72.8758 62.9918 65.7396 63.4259C58.8047 63.8474 53.0975 69.4537 52.5269 76.4217C52.2273 80.082 53.3051 83.4822 55.296 86.1543C58.4567 90.397 56.2389 96.5212 51.0967 97.6771C50.5298 97.8047 49.9579 97.921 49.383 98.0261C51.9059 98.4865 54.501 98.7392 57.1563 98.7392C81.0911 98.7392 100.494 79.2139 100.494 55.1281C100.494 31.0424 81.0905 11.5171 57.1557 11.5171Z" fill="url(#paint18_linear)"/>
<path d="M35.2423 63.3996C40.3057 63.3996 44.4104 59.269 44.4104 54.1736C44.4104 49.0782 40.3057 44.9476 35.2423 44.9476C30.1789 44.9476 26.0742 49.0782 26.0742 54.1736C26.0742 59.269 30.1789 63.3996 35.2423 63.3996Z" fill="url(#paint19_linear)"/>
<path d="M63.165 44.9476C68.2285 44.9476 72.3332 40.817 72.3332 35.7216C72.3332 30.6263 68.2285 26.4957 63.165 26.4957C58.1016 26.4957 53.9969 30.6263 53.9969 35.7216C53.9969 40.817 58.1016 44.9476 63.165 44.9476Z" fill="url(#paint20_linear)"/>
<path fill-rule="evenodd" clip-rule="evenodd" d="M176 37.3795V44.5713H197.037C199.482 44.5713 202.606 42.3103 202.606 38.57C202.606 37.0657 203.181 36.0845 201.413 34.0946L198.723 30.9064C197.181 29.468 198.907 29.468 200.202 29.468H209.084V44.5713H216.128V29.468H225.621V23H194.879C191.139 23 189.31 26.5913 189.413 28.4612C189.517 30.3311 189.86 32.6836 192.969 35.5097C195.804 38.0868 191.565 37.3795 191.139 37.3795H176ZM241.197 23H229.834L223.463 44.5719H230.553L231.703 41.5513H239.182L240.293 44.5719H247.237L241.197 23ZM233.286 36.3727L235.731 28.4612L238.033 36.3727H233.286ZM269.677 37.3795C266.944 37.3795 266.944 36.3727 266.944 36.3727C269.286 36.3727 271.362 32.961 271.362 29.468C271.362 25.9751 267.951 23 265.217 23H249.929V44.5719H257.697V37.3801C257.697 37.3801 261.005 41.2637 262.731 42.8459C264.458 44.428 264.601 44.5719 266.944 44.5719H279.138V37.3801C279.139 37.3795 272.41 37.3795 269.677 37.3795ZM262.629 32.3453H257.698V28.4612H262.629C264.889 28.4612 265.28 32.3453 262.629 32.3453ZM176 47.3042H183.947L185.961 54.4971L187.831 47.3042H196.174L198.331 54.4971L200.49 47.3042H207.394L201.064 68.8812H194.736L191.962 58.6677L188.838 68.8812H182.365L176 47.3042ZM223.704 47.4287H212.34L205.971 69H213.059L214.21 65.98H221.69L222.8 69H229.746L223.704 47.4287ZM215.793 60.8008L218.238 52.8893L220.539 60.8008H215.793ZM269.82 53.7779C268.527 53.7779 267.117 53.9291 268.659 55.3669L271.35 58.5557C273.118 60.5456 273.089 61.375 273.089 62.8805C273.089 66.6202 269.389 68.8812 266.944 68.8812L249.948 68.9955C247.606 68.9955 247.463 68.8522 245.736 67.27C244.011 65.6878 240.702 61.8037 240.702 61.8037V68.9955H232.935V47.4241H248.223C250.956 47.4241 254.368 50.3998 254.368 53.8922C254.368 57.3857 252.292 60.7968 249.949 60.7968C249.949 60.7968 250.979 61.8327 252.705 61.8327C254.432 61.8327 261.078 61.8395 261.078 61.8395C261.503 61.8395 265.741 62.5467 262.907 59.9696C259.799 57.1435 259.455 54.7921 259.351 52.9223C259.248 51.0524 260.865 47.3047 264.603 47.3047H279.14V53.7785H269.82V53.7779ZM245.633 56.7689H240.701V52.8848H245.633C247.894 52.8848 248.284 56.7689 245.633 56.7689Z" fill="#EACB2B"/>
</g>
<defs>
<linearGradient id="paint0_linear" x1="0.000106573" y1="132.5" x2="317" y2="132.5" gradientUnits="userSpaceOnUse">
<stop stop-color="#FD8087"/>
<stop offset="0.5213" stop-color="#FB2B3A"/>
<stop offset="1" stop-color="#D90D80"/>
</linearGradient>
<linearGradient id="paint1_linear" x1="186.206" y1="217.567" x2="348.768" y2="217.567" gradientUnits="userSpaceOnUse">
<stop stop-color="#FEF056"/>
<stop offset="0.5213" stop-color="#F4D902"/>
<stop offset="1" stop-color="#FE9738"/>
</linearGradient>
<linearGradient id="paint2_linear" x1="116.853" y1="169.797" x2="298.758" y2="169.797" gradientUnits="userSpaceOnUse">
<stop stop-color="#FEF056"/>
<stop offset="0.5213" stop-color="#F4D902"/>
<stop offset="1" stop-color="#FE9738"/>
</linearGradient>
<linearGradient id="paint3_linear" x1="116.853" y1="217.567" x2="298.758" y2="217.567" gradientUnits="userSpaceOnUse">
<stop stop-color="#FEF056"/>
<stop offset="0.5213" stop-color="#F4D902"/>
<stop offset="1" stop-color="#FE9738"/>
</linearGradient>
<linearGradient id="paint4_linear" x1="183.797" y1="230.686" x2="276.196" y2="230.686" gradientUnits="userSpaceOnUse">
<stop stop-color="#FEF056"/>
<stop offset="0.5213" stop-color="#F4D902"/>
<stop offset="1" stop-color="#FE9738"/>
</linearGradient>
<linearGradient id="paint5_linear" x1="178.697" y1="230.686" x2="266.19" y2="230.686" gradientUnits="userSpaceOnUse">
<stop stop-color="#FEF056"/>
<stop offset="0.5213" stop-color="#F4D902"/>
<stop offset="1" stop-color="#FE9738"/>
</linearGradient>
<linearGradient id="paint6_linear" x1="178.697" y1="229.667" x2="266.19" y2="229.667" gradientUnits="userSpaceOnUse">
<stop stop-color="#FEF056"/>
<stop offset="0.5213" stop-color="#F4D902"/>
<stop offset="1" stop-color="#FE9738"/>
</linearGradient>
<linearGradient id="paint7_linear" x1="178.697" y1="209.997" x2="266.19" y2="209.997" gradientUnits="userSpaceOnUse">
<stop stop-color="#FEF056"/>
<stop offset="0.5213" stop-color="#F4D902"/>
<stop offset="1" stop-color="#FE9738"/>
</linearGradient>
<linearGradient id="paint8_linear" x1="-35.4294" y1="210.435" x2="254.228" y2="210.435" gradientUnits="userSpaceOnUse">
<stop stop-color="#FD8087"/>
<stop offset="0.5213" stop-color="#FB2B3A"/>
<stop offset="1" stop-color="#D90D80"/>
</linearGradient>
<linearGradient id="paint9_linear" x1="-35.4294" y1="74.7147" x2="254.228" y2="74.7147" gradientUnits="userSpaceOnUse">
<stop stop-color="#FD8087"/>
<stop offset="0.5213" stop-color="#FB2B3A"/>
<stop offset="1" stop-color="#D90D80"/>
</linearGradient>
<linearGradient id="paint10_linear" x1="-35.4294" y1="231.373" x2="254.228" y2="231.373" gradientUnits="userSpaceOnUse">
<stop stop-color="#FD8087"/>
<stop offset="0.5213" stop-color="#FB2B3A"/>
<stop offset="1" stop-color="#D90D80"/>
</linearGradient>
<linearGradient id="paint11_linear" x1="22.0414" y1="194.791" x2="171.157" y2="194.791" gradientUnits="userSpaceOnUse">
<stop stop-color="#FD8087"/>
<stop offset="0.5213" stop-color="#FB2B3A"/>
<stop offset="1" stop-color="#D90D80"/>
</linearGradient>
<linearGradient id="paint12_linear" x1="-12.6937" y1="194.792" x2="166.319" y2="194.792" gradientUnits="userSpaceOnUse">
<stop stop-color="#FD8087"/>
<stop offset="0.5213" stop-color="#FB2B3A"/>
<stop offset="1" stop-color="#D90D80"/>
</linearGradient>
<linearGradient id="paint13_linear" x1="-12.6937" y1="193.148" x2="166.319" y2="193.148" gradientUnits="userSpaceOnUse">
<stop stop-color="#FD8087"/>
<stop offset="0.5213" stop-color="#FB2B3A"/>
<stop offset="1" stop-color="#D90D80"/>
</linearGradient>
<linearGradient id="paint14_linear" x1="-12.6937" y1="161.404" x2="166.319" y2="161.404" gradientUnits="userSpaceOnUse">
<stop stop-color="#FD8087"/>
<stop offset="0.5213" stop-color="#FB2B3A"/>
<stop offset="1" stop-color="#D90D80"/>
</linearGradient>
<linearGradient id="paint15_linear" x1="16.0782" y1="42.8223" x2="168.57" y2="42.8223" gradientUnits="userSpaceOnUse">
<stop stop-color="#814AA0"/>
<stop offset="1" stop-color="#192A7D"/>
</linearGradient>
<linearGradient id="paint16_linear" x1="-48.9796" y1="42.8222" x2="121.658" y2="42.8222" gradientUnits="userSpaceOnUse">
<stop stop-color="#814AA0"/>
<stop offset="1" stop-color="#192A7D"/>
</linearGradient>
<linearGradient id="paint17_linear" x1="13.8181" y1="55.1291" x2="100.493" y2="55.1291" gradientUnits="userSpaceOnUse">
<stop stop-color="#814AA0"/>
<stop offset="1" stop-color="#192A7D"/>
</linearGradient>
<linearGradient id="paint18_linear" x1="9.03387" y1="55.1281" x2="91.107" y2="55.1281" gradientUnits="userSpaceOnUse">
<stop stop-color="#814AA0"/>
<stop offset="1" stop-color="#192A7D"/>
</linearGradient>
<linearGradient id="paint19_linear" x1="9.03387" y1="54.1736" x2="91.107" y2="54.1736" gradientUnits="userSpaceOnUse">
<stop stop-color="#814AA0"/>
<stop offset="1" stop-color="#192A7D"/>
</linearGradient>
<linearGradient id="paint20_linear" x1="9.03386" y1="35.7216" x2="91.1071" y2="35.7216" gradientUnits="userSpaceOnUse">
<stop stop-color="#814AA0"/>
<stop offset="1" stop-color="#192A7D"/>
</linearGradient>
<clipPath id="clip0">
<rect width="317" height="319" fill="white" transform="translate(0 -27)"/>
</clipPath>
</defs>
</svg>
