<svg width="382" height="385" viewBox="0 0 382 385" fill="none" xmlns="http://www.w3.org/2000/svg">
<path d="M381.945 29.9876C381.951 29.9206 381.959 29.8536 381.966 29.7859C382.53 24.3308 375.95 21.1827 372.084 25.0611L360.547 36.6323C359.447 37.7346 358.006 38.2866 356.565 38.2866C355.168 38.2866 353.772 37.7693 352.686 36.7332C350.385 34.5377 350.508 30.7285 352.754 28.4757L371.512 9.66124C374.78 6.38293 372.596 0.668864 367.975 0.58604C367.939 0.585287 367.904 0.584534 367.868 0.584534C340.703 0.282605 314.563 10.9729 295.353 30.2399L216.252 109.577C214.45 111.384 212.604 113.136 210.717 114.834C204.637 120.299 196.297 111.381 202.071 105.59L219.372 88.2367C221.553 86.0501 221.773 82.4586 219.66 80.2073C217.473 77.8785 213.817 77.8371 211.576 80.0831L145.171 146.687C144.269 147.593 143.114 148.21 141.856 148.432C141.789 148.444 141.723 148.455 141.656 148.467C135.602 149.528 131.757 142.187 136.103 137.828L163.963 109.884C166.144 107.698 166.365 104.106 164.251 101.855C162.064 99.5263 158.409 99.4849 156.168 101.731L119.765 138.243C112.323 145.707 102.894 150.881 92.5976 153.066C38.439 164.561 -1.97588 214.022 0.0749343 271.792C2.21863 332.19 50.4405 381.338 110.617 384.423C164.916 387.208 212.167 352.092 227.83 303C230.543 294.495 235.113 286.704 241.408 280.391L273.277 248.426C275.457 246.24 275.678 242.648 273.564 240.397C271.377 238.068 267.722 238.027 265.481 240.273L248.046 257.76C242.709 263.113 233.601 258.895 234.22 251.351C234.227 251.264 234.234 251.176 234.242 251.09C234.403 249.18 235.237 247.394 236.588 246.039L346.29 136.01C348.47 133.824 348.691 130.232 346.577 127.981C344.39 125.652 340.735 125.61 338.494 127.856L261.542 205.037C256.317 210.277 247.935 203.825 251.592 197.385C257.711 186.606 265.283 176.601 274.181 167.677L353.282 88.3398C354.763 86.8543 356.193 85.3273 357.571 83.7619C361.052 79.8067 355.384 74.4383 351.664 78.1691C350.564 79.2714 349.123 79.8233 347.682 79.8233C346.285 79.8233 344.889 79.306 343.804 78.27C341.503 76.0744 341.625 72.2653 343.871 70.0125L380.275 33.5001C381.217 32.5552 381.803 31.3166 381.945 29.9876Z" fill="url(#paint0_linear)"/>
<path d="M381.995 214.763C381.939 209.606 377.793 205.439 372.663 205.382C355.739 205.193 339.453 211.869 327.485 223.899C316.778 234.663 301.681 239.53 286.665 237.576C282.796 237.072 278.833 236.872 274.8 236.999C235.184 238.249 203.492 271.391 203.736 311.234C203.983 351.628 236.51 384.326 276.694 384.576C316.329 384.822 349.3 352.965 350.544 313.142C350.671 309.086 350.471 305.102 349.97 301.212C348.027 286.117 352.868 270.942 363.576 260.179C375.543 248.148 382.183 231.777 381.995 214.763Z" fill="url(#paint1_linear)"/>
<path d="M282.244 237.151C279.793 236.982 277.311 236.92 274.799 236.999C272.248 237.079 269.731 237.294 267.252 237.632C272.305 238.233 277.356 238.057 282.244 237.151Z" fill="url(#paint2_linear)"/>
<path d="M372.663 205.382C367.64 205.326 362.677 205.889 357.863 207.003C360.346 208.689 361.989 211.531 362.025 214.763C362.213 231.777 355.572 248.148 343.604 260.178C332.897 270.942 328.055 286.116 329.999 301.211C330.5 305.101 330.699 309.086 330.573 313.142C329.44 349.421 301.974 379.084 267.128 383.891C270.258 384.321 273.45 384.556 276.694 384.575C316.329 384.822 349.3 352.965 350.544 313.142C350.671 309.086 350.471 305.101 349.97 301.211C348.027 286.116 352.868 270.941 363.575 260.178C375.543 248.148 382.184 231.776 381.996 214.763C381.938 209.606 377.793 205.439 372.663 205.382Z" fill="url(#paint3_linear)"/>
<path d="M277.157 366.734C307.904 366.734 332.829 341.678 332.829 310.77C332.829 279.862 307.904 254.806 277.157 254.806C246.41 254.806 221.484 279.862 221.484 310.77C221.484 341.678 246.41 366.734 277.157 366.734Z" fill="url(#paint4_linear)"/>
<path d="M277.156 254.805C273.745 254.805 270.412 255.13 267.171 255.721C293.15 260.453 312.858 283.29 312.858 310.77C312.858 319.719 310.757 328.17 307.041 335.67C305.157 327.145 297.351 320.861 288.183 321.419C279.275 321.96 271.943 329.154 271.21 338.096C270.825 342.793 272.21 347.156 274.767 350.585C278.827 356.03 275.978 363.888 269.372 365.372C268.643 365.535 267.909 365.685 267.17 365.819C270.411 366.409 273.745 366.734 277.156 366.734C307.903 366.734 332.828 341.679 332.828 310.771C332.828 279.862 307.904 254.805 277.156 254.805Z" fill="url(#paint5_linear)"/>
<path d="M249.006 321.383C255.511 321.383 260.784 316.083 260.784 309.544C260.784 303.005 255.511 297.705 249.006 297.705C242.502 297.705 237.229 303.005 237.229 309.544C237.229 316.083 242.502 321.383 249.006 321.383Z" fill="url(#paint6_linear)"/>
<path d="M284.877 297.705C291.381 297.705 296.654 292.404 296.654 285.866C296.654 279.327 291.381 274.026 284.877 274.026C278.372 274.026 273.099 279.327 273.099 285.866C273.099 292.404 278.372 297.705 284.877 297.705Z" fill="url(#paint7_linear)"/>
<path d="M97.6728 376.709C147.293 376.709 187.518 336.273 187.518 286.393C187.518 236.513 147.293 196.077 97.6728 196.077C48.0524 196.077 7.82715 236.513 7.82715 286.393C7.82715 336.273 48.0524 376.709 97.6728 376.709Z" fill="url(#paint8_linear)"/>
<path d="M372.084 25.061L360.547 36.6321C359.448 37.7345 358.007 38.2864 356.565 38.2864C355.169 38.2864 353.772 37.7683 352.687 36.733C350.386 34.5382 350.509 30.7283 352.754 28.4763L371.513 9.6618C374.782 6.38349 372.597 0.669423 367.976 0.586599C367.941 0.585846 367.906 0.585846 367.87 0.585093C356.713 0.460858 345.73 2.19488 335.328 5.61173C335.407 7.02876 334.945 8.49851 333.785 9.66255L315.026 28.477C312.781 30.7291 312.659 34.539 314.959 36.7338C316.044 37.7698 317.44 38.2871 318.837 38.2871C320.278 38.2871 321.72 37.736 322.819 36.6329L334.356 25.0617C338.224 21.181 344.806 24.3329 344.237 29.7977C344.23 29.8655 344.222 29.9332 344.216 29.9995C344.076 31.3247 343.485 32.5595 342.547 33.5007L306.143 70.013C303.897 72.2658 303.775 76.0757 306.076 78.2713C307.162 79.3066 308.558 79.8239 309.954 79.8239C311.394 79.8239 312.835 79.2727 313.935 78.1697H315.604C320.673 78.1697 322.095 81.3132 318.67 85.0704C317.658 86.181 316.619 87.2712 315.553 88.3396L218.041 186.196C214.677 189.571 214.573 195.017 217.804 198.521C219.924 200.819 220.581 203.857 217.786 208.761C213.628 216.056 214.715 225.236 220.21 231.573L220.635 232.063C223.764 235.671 228.11 237.827 232.789 238.716C233.914 238.93 234.987 239.49 235.837 240.395C237.143 241.787 237.555 243.69 237.167 245.457L346.29 136.008C348.47 133.822 348.691 130.23 346.577 127.979C344.39 125.65 340.735 125.609 338.494 127.855L261.542 205.036C256.314 210.28 247.943 203.808 251.605 197.361C257.722 186.592 265.29 176.594 274.181 167.677L353.282 88.3396C354.348 87.2712 355.387 86.181 356.399 85.0704C359.824 81.3132 358.402 78.1697 353.333 78.1697H351.664C350.564 79.272 349.123 79.8239 347.683 79.8239C346.287 79.8239 344.891 79.3066 343.805 78.2713C341.503 76.0765 341.626 72.2658 343.872 70.013L380.276 33.5007C381.214 32.5595 381.804 31.3247 381.945 29.9995C381.952 29.9325 381.959 29.8655 381.965 29.7977C382.534 24.3329 375.953 21.1803 372.084 25.061Z" fill="url(#paint9_linear)"/>
<path d="M265.482 240.271L248.047 257.758C242.71 263.111 233.601 258.894 234.22 251.349C234.228 251.262 234.235 251.175 234.242 251.088C234.291 250.511 234.408 249.948 234.576 249.402L203.459 278.542C197.164 284.856 192.815 294.494 190.102 302.999C176.891 344.409 141.203 375.874 97.7678 383.037C101.98 383.728 106.266 384.2 110.617 384.423C164.917 387.208 212.168 352.092 227.831 302.999C230.544 294.495 235.113 286.704 241.408 280.391L273.277 248.426C275.458 246.24 275.679 242.648 273.565 240.397C271.378 238.067 267.722 238.025 265.482 240.271Z" fill="url(#paint10_linear)"/>
<path d="M116.407 357.878C166.027 357.878 206.252 317.442 206.252 267.562C206.252 217.681 166.027 177.245 116.407 177.245C66.7863 177.245 26.561 217.681 26.561 267.562C26.561 317.442 66.7863 357.878 116.407 357.878Z" fill="url(#paint11_linear)"/>
<path d="M116.407 177.245C110.902 177.245 105.523 177.77 100.292 178.723C142.218 186.36 174.023 223.215 174.023 267.562C174.023 282.005 170.632 295.642 164.634 307.746C161.594 293.989 148.997 283.848 134.202 284.747C119.824 285.62 107.993 297.23 106.809 311.661C106.188 319.241 108.423 326.283 112.55 331.817C119.102 340.603 114.504 353.285 103.843 355.68C102.667 355.944 101.483 356.185 100.291 356.402C105.522 357.355 110.901 357.879 116.406 357.879C166.026 357.879 206.252 317.443 206.252 267.563C206.252 217.683 166.027 177.245 116.407 177.245Z" fill="url(#paint12_linear)"/>
<path d="M70.9764 284.69C81.4737 284.69 89.9835 276.136 89.9835 265.584C89.9835 255.031 81.4737 246.477 70.9764 246.477C60.479 246.477 51.9692 255.031 51.9692 265.584C51.9692 276.136 60.479 284.69 70.9764 284.69Z" fill="url(#paint13_linear)"/>
<path d="M128.865 246.478C139.362 246.478 147.872 237.923 147.872 227.371C147.872 216.819 139.362 208.264 128.865 208.264C118.368 208.264 109.858 216.819 109.858 227.371C109.858 237.923 118.368 246.478 128.865 246.478Z" fill="url(#paint14_linear)"/>
<path d="M167.22 9.38103C167.167 4.54339 163.279 0.634868 158.466 0.58141C142.59 0.404468 127.313 6.66593 116.086 17.9518C106.043 28.048 91.8808 32.6138 77.794 30.7811C74.165 30.309 70.4476 30.1208 66.6636 30.2405C29.5017 31.4121 -0.227639 62.5018 0.00156054 99.8763C0.233757 137.768 30.7458 168.441 68.4402 168.676C105.62 168.907 136.549 139.023 137.716 101.666C137.835 97.8614 137.648 94.1238 137.178 90.4743C135.354 76.3145 139.896 62.0794 149.94 51.9832C161.167 40.6981 167.396 25.3404 167.22 9.38103Z" fill="url(#paint15_linear)"/>
<path d="M73.6473 30.3828C71.3471 30.2239 69.0199 30.1659 66.6634 30.2397C64.2711 30.315 61.9094 30.5168 59.5845 30.8338C64.3243 31.3977 69.0618 31.2321 73.6473 30.3828Z" fill="url(#paint16_linear)"/>
<path d="M158.466 0.581354C153.754 0.528648 149.099 1.05646 144.583 2.10154C146.913 3.68347 148.453 6.34964 148.486 9.38098C148.662 25.3403 142.433 40.6973 131.206 51.9831C121.163 62.0793 116.621 76.3144 118.444 90.4742C118.913 94.123 119.101 97.8614 118.982 101.666C117.92 135.698 92.1548 163.524 59.4668 168.032C62.403 168.436 65.3975 168.656 68.4401 168.675C105.62 168.906 136.549 139.022 137.716 101.665C137.835 97.8606 137.648 94.1222 137.178 90.4735C135.354 76.3137 139.897 62.0786 149.94 51.9824C161.167 40.6966 167.396 25.3396 167.22 9.38022C167.167 4.54333 163.279 0.634812 158.466 0.581354Z" fill="url(#paint17_linear)"/>
<path d="M68.8753 151.939C97.7177 151.939 121.099 128.435 121.099 99.4413C121.099 70.4478 97.7177 46.944 68.8753 46.944C40.0328 46.944 16.6514 70.4478 16.6514 99.4413C16.6514 128.435 40.0328 151.939 68.8753 151.939Z" fill="url(#paint18_linear)"/>
<path d="M68.8753 46.943C65.6762 46.943 62.5491 47.2479 59.5081 47.8013C83.8782 52.2407 102.365 73.6626 102.365 99.4403C102.365 107.836 100.394 115.763 96.9081 122.797C95.1412 114.801 87.8188 108.906 79.2193 109.429C70.8624 109.936 63.985 116.685 63.2974 125.073C62.9363 129.479 64.2351 133.572 66.6342 136.788C70.443 141.896 67.7705 149.268 61.5739 150.659C60.8907 150.813 60.2016 150.953 59.5088 151.079C62.5491 151.633 65.6762 151.938 68.876 151.938C97.7186 151.938 121.1 128.434 121.1 99.4403C121.1 70.4468 97.7178 46.943 68.8753 46.943Z" fill="url(#paint19_linear)"/>
<path d="M42.4687 109.397C48.5704 109.397 53.5167 104.425 53.5167 98.2913C53.5167 92.1577 48.5704 87.1854 42.4687 87.1854C36.367 87.1854 31.4207 92.1577 31.4207 98.2913C31.4207 104.425 36.367 109.397 42.4687 109.397Z" fill="url(#paint20_linear)"/>
<path d="M76.1169 87.1854C82.2186 87.1854 87.1649 82.2131 87.1649 76.0795C87.1649 69.9459 82.2186 64.9736 76.1169 64.9736C70.0152 64.9736 65.0688 69.9459 65.0688 76.0795C65.0688 82.2131 70.0152 87.1854 76.1169 87.1854Z" fill="url(#paint21_linear)"/>
<defs>
<linearGradient id="paint0_linear" x1="3.23962e-05" y1="192.578" x2="382" y2="192.578" gradientUnits="userSpaceOnUse">
<stop stop-color="#FD8087"/>
<stop offset="0.5213" stop-color="#FB2B3A"/>
<stop offset="1" stop-color="#D90D80"/>
</linearGradient>
<linearGradient id="paint1_linear" x1="224.387" y1="294.978" x2="420.282" y2="294.978" gradientUnits="userSpaceOnUse">
<stop stop-color="#FEF056"/>
<stop offset="0.5213" stop-color="#F4D902"/>
<stop offset="1" stop-color="#FE9738"/>
</linearGradient>
<linearGradient id="paint2_linear" x1="140.813" y1="237.474" x2="360.018" y2="237.474" gradientUnits="userSpaceOnUse">
<stop stop-color="#FEF056"/>
<stop offset="0.5213" stop-color="#F4D902"/>
<stop offset="1" stop-color="#FE9738"/>
</linearGradient>
<linearGradient id="paint3_linear" x1="140.813" y1="294.978" x2="360.018" y2="294.978" gradientUnits="userSpaceOnUse">
<stop stop-color="#FEF056"/>
<stop offset="0.5213" stop-color="#F4D902"/>
<stop offset="1" stop-color="#FE9738"/>
</linearGradient>
<linearGradient id="paint4_linear" x1="221.484" y1="310.77" x2="332.829" y2="310.77" gradientUnits="userSpaceOnUse">
<stop stop-color="#FEF056"/>
<stop offset="0.5213" stop-color="#F4D902"/>
<stop offset="1" stop-color="#FE9738"/>
</linearGradient>
<linearGradient id="paint5_linear" x1="215.338" y1="310.77" x2="320.771" y2="310.77" gradientUnits="userSpaceOnUse">
<stop stop-color="#FEF056"/>
<stop offset="0.5213" stop-color="#F4D902"/>
<stop offset="1" stop-color="#FE9738"/>
</linearGradient>
<linearGradient id="paint6_linear" x1="215.338" y1="309.544" x2="320.771" y2="309.544" gradientUnits="userSpaceOnUse">
<stop stop-color="#FEF056"/>
<stop offset="0.5213" stop-color="#F4D902"/>
<stop offset="1" stop-color="#FE9738"/>
</linearGradient>
<linearGradient id="paint7_linear" x1="215.338" y1="285.866" x2="320.771" y2="285.866" gradientUnits="userSpaceOnUse">
<stop stop-color="#FEF056"/>
<stop offset="0.5213" stop-color="#F4D902"/>
<stop offset="1" stop-color="#FE9738"/>
</linearGradient>
<linearGradient id="paint8_linear" x1="-42.6942" y1="286.393" x2="306.356" y2="286.393" gradientUnits="userSpaceOnUse">
<stop stop-color="#FD8087"/>
<stop offset="0.5213" stop-color="#FB2B3A"/>
<stop offset="1" stop-color="#D90D80"/>
</linearGradient>
<linearGradient id="paint9_linear" x1="-42.6942" y1="123.018" x2="306.356" y2="123.018" gradientUnits="userSpaceOnUse">
<stop stop-color="#FD8087"/>
<stop offset="0.5213" stop-color="#FB2B3A"/>
<stop offset="1" stop-color="#D90D80"/>
</linearGradient>
<linearGradient id="paint10_linear" x1="-42.6943" y1="311.597" x2="306.356" y2="311.597" gradientUnits="userSpaceOnUse">
<stop stop-color="#FD8087"/>
<stop offset="0.5213" stop-color="#FB2B3A"/>
<stop offset="1" stop-color="#D90D80"/>
</linearGradient>
<linearGradient id="paint11_linear" x1="26.561" y1="267.562" x2="206.252" y2="267.562" gradientUnits="userSpaceOnUse">
<stop stop-color="#FD8087"/>
<stop offset="0.5213" stop-color="#FB2B3A"/>
<stop offset="1" stop-color="#D90D80"/>
</linearGradient>
<linearGradient id="paint12_linear" x1="-15.2964" y1="267.562" x2="200.422" y2="267.562" gradientUnits="userSpaceOnUse">
<stop stop-color="#FD8087"/>
<stop offset="0.5213" stop-color="#FB2B3A"/>
<stop offset="1" stop-color="#D90D80"/>
</linearGradient>
<linearGradient id="paint13_linear" x1="-15.2965" y1="265.584" x2="200.422" y2="265.584" gradientUnits="userSpaceOnUse">
<stop stop-color="#FD8087"/>
<stop offset="0.5213" stop-color="#FB2B3A"/>
<stop offset="1" stop-color="#D90D80"/>
</linearGradient>
<linearGradient id="paint14_linear" x1="-15.2965" y1="227.371" x2="200.422" y2="227.371" gradientUnits="userSpaceOnUse">
<stop stop-color="#FD8087"/>
<stop offset="0.5213" stop-color="#FB2B3A"/>
<stop offset="1" stop-color="#D90D80"/>
</linearGradient>
<linearGradient id="paint15_linear" x1="19.375" y1="84.627" x2="203.135" y2="84.627" gradientUnits="userSpaceOnUse">
<stop stop-color="#814AA0"/>
<stop offset="1" stop-color="#192A7D"/>
</linearGradient>
<linearGradient id="paint16_linear" x1="-59.0227" y1="30.6854" x2="146.603" y2="30.6854" gradientUnits="userSpaceOnUse">
<stop stop-color="#814AA0"/>
<stop offset="1" stop-color="#192A7D"/>
</linearGradient>
<linearGradient id="paint17_linear" x1="-59.0229" y1="84.6269" x2="146.603" y2="84.6269" gradientUnits="userSpaceOnUse">
<stop stop-color="#814AA0"/>
<stop offset="1" stop-color="#192A7D"/>
</linearGradient>
<linearGradient id="paint18_linear" x1="16.6514" y1="99.4413" x2="121.099" y2="99.4413" gradientUnits="userSpaceOnUse">
<stop stop-color="#814AA0"/>
<stop offset="1" stop-color="#192A7D"/>
</linearGradient>
<linearGradient id="paint19_linear" x1="10.8862" y1="99.4403" x2="109.788" y2="99.4403" gradientUnits="userSpaceOnUse">
<stop stop-color="#814AA0"/>
<stop offset="1" stop-color="#192A7D"/>
</linearGradient>
<linearGradient id="paint20_linear" x1="10.8863" y1="98.2913" x2="109.788" y2="98.2913" gradientUnits="userSpaceOnUse">
<stop stop-color="#814AA0"/>
<stop offset="1" stop-color="#192A7D"/>
</linearGradient>
<linearGradient id="paint21_linear" x1="10.8863" y1="76.0795" x2="109.788" y2="76.0795" gradientUnits="userSpaceOnUse">
<stop stop-color="#814AA0"/>
<stop offset="1" stop-color="#192A7D"/>
</linearGradient>
</defs>
</svg>
