<svg width="188" height="84" viewBox="0 0 188 84" fill="none" xmlns="http://www.w3.org/2000/svg">
<path fill-rule="evenodd" clip-rule="evenodd" d="M0.823219 26.4245V39.4186H38.8329C43.2509 39.4186 48.8954 35.3334 48.8954 28.5754C48.8954 25.8575 49.9349 24.0845 46.7403 20.4893L41.8786 14.7287C39.0928 12.1299 42.2114 12.1299 44.5513 12.1299H60.5994V39.4186H73.3265V12.1299H90.4798V0.44339H34.9347C28.1767 0.44339 24.8721 6.93224 25.0581 10.3107C25.245 13.6892 25.8665 17.9398 31.4822 23.046C36.6049 27.7023 28.946 26.4245 28.1767 26.4245H0.823219ZM118.622 0.44339H98.0903L86.5805 39.4196H99.3897L101.468 33.9621H114.982L116.988 39.4196H129.535L118.622 0.44339ZM104.328 24.6053L108.746 10.3107L112.905 24.6053H104.328ZM170.08 26.4245C165.142 26.4245 165.142 24.6053 165.142 24.6053C169.373 24.6053 173.125 18.441 173.125 12.1299C173.125 5.81876 166.961 0.44339 162.022 0.44339H134.399V39.4196H148.435V26.4255C148.435 26.4255 154.411 33.4423 157.53 36.3011C160.649 39.1598 160.908 39.4196 165.141 39.4196H187.174V26.4255C187.176 26.4245 175.018 26.4245 170.08 26.4245ZM157.345 17.3286H148.437V10.3107H157.345C161.429 10.3107 162.136 17.3286 157.345 17.3286ZM0.823219 44.3564H15.1825L18.8209 57.3526L22.1994 44.3564H37.2736L41.1718 57.3526L45.0711 44.3564H57.5455L46.1096 83.3419H34.6748L29.6641 64.8882L24.0185 83.3419H12.3238L0.823219 44.3564ZM87.015 44.5814H66.4832L54.9744 83.5566H67.7826L69.8617 78.1001H83.3766L85.3828 83.5566H97.9311L87.015 44.5814ZM72.7214 68.7422L77.1394 54.4477L81.2976 68.7422H72.7214ZM170.339 56.0532C168.002 56.0532 165.453 56.3264 168.24 58.9242L173.103 64.6858C176.297 68.281 176.245 69.7797 176.245 72.4998C176.245 79.2567 169.56 83.3419 165.142 83.3419L134.433 83.5484C130.202 83.5484 129.943 83.2895 126.823 80.4308C123.706 77.5721 117.727 70.5542 117.727 70.5542V83.5484H103.694V44.5731H131.316C136.254 44.5731 142.419 49.9495 142.419 56.2597C142.419 62.5718 138.668 68.7351 134.435 68.7351C134.435 68.7351 136.296 70.6066 139.415 70.6066C142.534 70.6066 154.542 70.6189 154.542 70.6189C155.311 70.6189 162.969 71.8968 157.847 67.2405C152.231 62.1342 151.61 57.8857 151.423 54.5072C151.236 51.1288 154.157 44.3574 160.912 44.3574H187.178V56.0542H170.339V56.0532ZM126.636 61.4573H117.726V54.4394H126.636C130.722 54.4394 131.427 61.4573 126.636 61.4573Z" fill="#EACB2B"/>
</svg>
